<?xml version="1.0" encoding="UTF-8"?>
<svg width="256" height="256" viewBox="0 0 256 256" xmlns="http://www.w3.org/2000/svg">
  <!-- Modern flat design version -->
  <defs>
    <linearGradient id="modernBg" x1="0%" y1="0%" x2="100%" y2="100%">
      <stop offset="0%" style="stop-color:#4CAF50;stop-opacity:1" />
      <stop offset="100%" style="stop-color:#2E7D32;stop-opacity:1" />
    </linearGradient>
  </defs>
  
  <!-- Rounded square background -->
  <rect x="20" y="20" width="216" height="216" rx="40" ry="40" fill="url(#modernBg)"/>
  
  <!-- Terminal window -->
  <rect x="50" y="70" width="156" height="116" rx="8" ry="8" fill="#263238"/>
  
  <!-- Terminal header bar -->
  <rect x="50" y="70" width="156" height="24" rx="8" ry="8" fill="#37474F"/>
  <rect x="50" y="82" width="156" height="12" fill="#37474F"/>
  
  <!-- Window controls -->
  <circle cx="65" cy="82" r="4" fill="#F44336"/>
  <circle cx="80" cy="82" r="4" fill="#FF9800"/>
  <circle cx="95" cy="82" r="4" fill="#4CAF50"/>
  
  <!-- Terminal content area -->
  <rect x="60" y="104" width="136" height="72" fill="#1A1A1A"/>
  
  <!-- Code/terminal text -->
  <rect x="70" y="114" width="40" height="4" fill="#00E676" rx="2"/>
  <rect x="115" y="114" width="30" height="4" fill="#2196F3" rx="2"/>
  <rect x="70" y="124" width="25" height="4" fill="#00E676" rx="2"/>
  <rect x="100" y="124" width="45" height="4" fill="#FF5722" rx="2"/>
  <rect x="70" y="134" width="50" height="4" fill="#00E676" rx="2"/>
  <rect x="70" y="144" width="35" height="4" fill="#9C27B0" rx="2"/>
  <rect x="110" y="144" width="25" height="4" fill="#00E676" rx="2"/>
  <rect x="70" y="154" width="45" height="4" fill="#00E676" rx="2"/>
  <rect x="70" y="164" width="20" height="4" fill="#FFC107" rx="2"/>
  
  <!-- COM port symbol -->
  <rect x="140" y="120" width="40" height="20" rx="4" ry="4" fill="#455A64"/>
  
  <!-- Port pins -->
  <rect x="145" y="125" width="6" height="3" fill="#FFD54F" rx="1"/>
  <rect x="153" y="125" width="6" height="3" fill="#FFD54F" rx="1"/>
  <rect x="161" y="125" width="6" height="3" fill="#FFD54F" rx="1"/>
  <rect x="169" y="125" width="6" height="3" fill="#FFD54F" rx="1"/>
  <rect x="145" y="132" width="6" height="3" fill="#FFD54F" rx="1"/>
  <rect x="153" y="132" width="6" height="3" fill="#FFD54F" rx="1"/>
  <rect x="161" y="132" width="6" height="3" fill="#FFD54F" rx="1"/>
  <rect x="169" y="132" width="6" height="3" fill="#FFD54F" rx="1"/>
  
  <!-- Signal indicator -->
  <circle cx="190" cy="120" r="6" fill="#00E676">
    <animate attributeName="opacity" values="0.3;1;0.3" dur="2s" repeatCount="indefinite"/>
  </circle>
  <circle cx="190" cy="135" r="4" fill="#2196F3">
    <animate attributeName="opacity" values="1;0.3;1" dur="1.5s" repeatCount="indefinite"/>
  </circle>
  <circle cx="190" cy="150" r="3" fill="#FF5722">
    <animate attributeName="opacity" values="0.3;1;0.3" dur="1s" repeatCount="indefinite"/>
  </circle>
  
  <!-- Data flow lines -->
  <path d="M 50 200 Q 128 210 206 200" stroke="#00E676" stroke-width="3" fill="none" opacity="0.6">
    <animate attributeName="stroke-dasharray" values="0,20;20,0;0,20" dur="2s" repeatCount="indefinite"/>
  </path>
</svg>