<?xml version="1.0" encoding="UTF-8"?>
<svg width="64" height="64" viewBox="0 0 64 64" xmlns="http://www.w3.org/2000/svg">
  <!-- Simplified version for small sizes -->
  <defs>
    <linearGradient id="bgGrad" x1="0%" y1="0%" x2="100%" y2="100%">
      <stop offset="0%" style="stop-color:#2E7D32;stop-opacity:1" />
      <stop offset="100%" style="stop-color:#1B5E20;stop-opacity:1" />
    </linearGradient>
  </defs>
  
  <!-- Background -->
  <circle cx="32" cy="32" r="30" fill="url(#bgGrad)" stroke="#1B5E20" stroke-width="2"/>
  
  <!-- Terminal screen -->
  <rect x="8" y="16" width="48" height="32" rx="3" ry="3" fill="#1A1A1A" stroke="#424242" stroke-width="1"/>
  
  <!-- Text lines -->
  <rect x="12" y="20" width="20" height="2" fill="#00E676"/>
  <rect x="12" y="25" width="15" height="2" fill="#00E676"/>
  <rect x="12" y="30" width="25" height="2" fill="#00E676"/>
  <rect x="12" y="35" width="18" height="2" fill="#00E676"/>
  <rect x="12" y="40" width="22" height="2" fill="#00E676"/>
  
  <!-- COM connector -->
  <rect x="40" y="22" width="12" height="8" rx="1" fill="#424242"/>
  <circle cx="43" cy="25" r="1" fill="#FFD54F"/>
  <circle cx="46" cy="25" r="1" fill="#FFD54F"/>
  <circle cx="49" cy="25" r="1" fill="#FFD54F"/>
  <circle cx="43" cy="28" r="1" fill="#FFD54F"/>
  <circle cx="46" cy="28" r="1" fill="#FFD54F"/>
  <circle cx="49" cy="28" r="1" fill="#FFD54F"/>
  
  <!-- Signal waves -->
  <path d="M 52 26 Q 56 24 60 26" stroke="#00E676" stroke-width="2" fill="none"/>
  <path d="M 52 30 Q 56 28 60 30" stroke="#00E676" stroke-width="1" fill="none" opacity="0.7"/>
</svg>